<svg xmlns="http://www.w3.org/2000/svg" viewBox="0 0 120 120"><defs><style>.cls-1{fill:#41b6e6;}</style></defs><title>icon-slack</title><g id="circle"><path class="cls-1" d="M60,4A56,56,0,1,1,4,60,56.06,56.06,0,0,1,60,4m0-4a60,60,0,1,0,60,60A60,60,0,0,0,60,0Z"/></g><g id="Layer_1" data-name="Layer 1"><path class="cls-1" d="M95,63.62a5.45,5.45,0,0,1-3.91,5.47l-7.24,2.48,2.36,7a6.29,6.29,0,0,1,.29,2,6.09,6.09,0,0,1-11.86,1.94l-2.31-7L59.29,80l2.31,6.9a6.33,6.33,0,0,1,.34,2A6.13,6.13,0,0,1,55.88,95a6.07,6.07,0,0,1-5.81-4.16L47.76,84l-6.44,2.23a7.14,7.14,0,0,1-2.1.38,5.81,5.81,0,0,1-6-5.94,6.15,6.15,0,0,1,4.16-5.8L44,72.62,39.56,59.45,33,61.72a6.44,6.44,0,0,1-2,.34,5.86,5.86,0,0,1-6-5.93,6.17,6.17,0,0,1,4.16-5.81l6.61-2.23-2.23-6.68a6.33,6.33,0,0,1-.34-2,6.09,6.09,0,0,1,11.87-1.94l2.27,6.73,13-4.41-2.27-6.73a6.33,6.33,0,0,1-.34-2,6.12,6.12,0,0,1,11.91-1.94l2.22,6.78,6.82-2.32a6.82,6.82,0,0,1,1.81-.25,5.91,5.91,0,0,1,6.1,5.81,6.22,6.22,0,0,1-4.38,5.59L75.65,47l4.42,13.3L87,58a6.23,6.23,0,0,1,1.93-.34A5.9,5.9,0,0,1,95,63.62Zm-26.46.63L64.12,51l-13,4.5L55.5,68.67Z"/></g></svg>