<svg xmlns="http://www.w3.org/2000/svg" viewBox="0 0 120 120"><defs><style>.cls-1{fill:#41b6e6;}</style></defs><title>icon-telegram</title><g id="Layer_1" data-name="Layer 1"><path class="cls-1" d="M60,4A56,56,0,1,1,4,60,56.06,56.06,0,0,1,60,4m0-4a60,60,0,1,0,60,60A60,60,0,0,0,60,0Z"/><path class="cls-1" d="M89.8,37,79.24,86.81c-.8,3.51-2.88,4.39-5.83,2.73L57.31,77.68l-7.76,7.47a4,4,0,0,1-3.24,1.58l1.16-16.39,29.83-27c1.3-1.15-.28-1.79-2-.64L38.41,66,22.53,61c-3.45-1.07-3.52-3.45.72-5.11L85.35,32C88.22,30.88,90.74,32.6,89.8,37Z"/></g></svg>