<svg xmlns="http://www.w3.org/2000/svg" viewBox="0 0 120 120"><defs><style>.cls-1{fill:#41b6e6;}</style></defs><title>icon-facebook</title><g id="circle"><path class="cls-1" d="M60,4A56,56,0,1,1,4,60,56.06,56.06,0,0,1,60,4m0-4a60,60,0,1,0,60,60A60,60,0,0,0,60,0Z"/></g><g id="Layer_1" data-name="Layer 1"><path class="cls-1" d="M78.17,36.61h-6.6c-5.18,0-6.14,2.48-6.14,6.06v7.95H77.75L76.11,63.07H65.43V95H52.55V63.07H41.83V50.62H52.55V41.45c0-10.64,6.52-16.45,16-16.45a81.54,81.54,0,0,1,9.59.51Z"/></g></svg>