<svg xmlns="http://www.w3.org/2000/svg" viewBox="0 0 120 120"><defs><style>.cls-1{fill:#41b6e6;}</style></defs><title>icon-linkedin</title><g id="circle"><path class="cls-1" d="M60,4A56,56,0,1,1,4,60,56.06,56.06,0,0,1,60,4m0-4a60,60,0,1,0,60,60A60,60,0,0,0,60,0Z"/></g><g id="Layer_1" data-name="Layer 1"><path class="cls-1" d="M38.88,42.48h-.07c-4.4,0-7.21-3-7.21-6.76S34.53,29,39,29s7.25,2.93,7.29,6.77S43.44,42.48,38.88,42.48Zm6.54,44.57H32.35V47.83H45.42Zm47,0h-13v-21c0-5.26-1.9-8.86-6.61-8.86A7.13,7.13,0,0,0,66.08,62a9.71,9.71,0,0,0-.44,3.2V87.05h-13c.16-35.54,0-39.22,0-39.22h13v5.7h-.08A12.93,12.93,0,0,1,77.4,46.92c8.59,0,15,5.62,15,17.65Z"/></g></svg>