<svg xmlns="http://www.w3.org/2000/svg" viewBox="0 0 120 120"><defs><style>.cls-1{fill:#41b6e6;}</style></defs><title>icon-twitter</title><g id="circle"><path class="cls-1" d="M60,4A56,56,0,1,1,4,60,56.06,56.06,0,0,1,60,4m0-4a60,60,0,1,0,60,60A60,60,0,0,0,60,0Z"/></g><g id="Layer_1" data-name="Layer 1"><path class="cls-1" d="M89.8,47.74c0,.62,0,1.25,0,1.87,0,19-14.44,40.82-40.82,40.82A40.58,40.58,0,0,1,27,84a30.43,30.43,0,0,0,3.47.17A28.71,28.71,0,0,0,48.28,78a14.37,14.37,0,0,1-13.42-10,17.28,17.28,0,0,0,2.71.23,15.24,15.24,0,0,0,3.78-.49A14.35,14.35,0,0,1,29.84,53.74v-.18a14.41,14.41,0,0,0,6.49,1.82,14.35,14.35,0,0,1-4.44-19.19,40.75,40.75,0,0,0,29.58,15,16.41,16.41,0,0,1-.36-3.29A14.36,14.36,0,0,1,85.94,38.1,28.23,28.23,0,0,0,95,34.64a14.32,14.32,0,0,1-6.3,7.91A28.76,28.76,0,0,0,97,40.32,30.75,30.75,0,0,1,89.8,47.74Z"/></g></svg>