<svg xmlns="http://www.w3.org/2000/svg" viewBox="0 0 120 120"><defs><style>.cls-1{fill:#41b6e6;}</style></defs><title>icon-angellist</title><g id="circle"><path class="cls-1" d="M60,4A56,56,0,1,1,4,60,56.06,56.06,0,0,1,60,4m0-4a60,60,0,1,0,60,60A60,60,0,0,0,60,0Z"/></g><g id="Layer_1" data-name="Layer 1"><path class="cls-1" d="M42.42,64.88a13.59,13.59,0,0,1-1.09-4.06c0-3.2,3.94-7.19,7.15-7.19a8.24,8.24,0,0,1,2.73.59c-1.64-4.65-6.37-17.74-6.37-22.15,0-3.94,2-7.07,6.25-7.07,5.47,0,11.68,19.69,13,23.59,1.72-4.29,7.11-22.3,13.2-22.3,3.83,0,6,3.05,6,6.68,0,4.14-4.61,17-6.21,21.48,6.56,1.6,7.5,6.92,7.5,12.82,0,15.62-10,27.73-26.09,27.73a24.87,24.87,0,0,1-8.71-1.64c-7.43-2.81-14.34-10.43-14.34-18.67C35.43,69.61,37.38,66.25,42.42,64.88ZM40.86,78.4A19.07,19.07,0,0,0,59,90.47,19.5,19.5,0,0,0,74,83.83c4.21-4.69,5.93-10.47,5.93-16.68,0-2.19,0-5.67-1.68-7.23-3.28-2.89-14.41-4-18.82-4a3.25,3.25,0,0,0-1.92.43c-.47.19-.47.93-.47,1.36,0,6,12.62,5.43,16.41,5.43a1.74,1.74,0,0,1,1.56.75,3.81,3.81,0,0,1,.74,2.14A10.23,10.23,0,0,1,72,68.16,13.67,13.67,0,0,0,68.32,70c-3,2.19-6,5.94-6,9.81,0,2.42,1.45,4.49,1.45,6.87,0,0-.27.9-.27,1-4.46-.32-5.55-4.73-5.71-8.44a7,7,0,0,1-1.6.08,2.82,2.82,0,0,1,.08.82A5.13,5.13,0,0,1,51,85c-4.22,0-9.81-5-9.81-9.26a3.44,3.44,0,0,1,1.29-2.62c.78,1,1.6,2,2.34,3C46,77.66,47.93,80.2,50,80.2c.55,0,1.6-.47,1.6-1.14,0-1.76-6.41-10-8-10-2.46,0-3.79,3.24-3.79,5.28A11.25,11.25,0,0,0,40.86,78.4Zm15.7-3.79A1.64,1.64,0,0,0,58,73.05a16.91,16.91,0,0,0-1.25-4c-1-2.61-4.73-10.7-7.93-10.7-1.06,0-2.78,1.84-2.78,2.89C46.05,64.1,53.71,74.61,56.56,74.61ZM55.35,52a4,4,0,0,1,1.92-.39c.93,0,2,.12,2.93.2L55.47,38.05c-.51-1.49-2.77-8.6-4.81-8.6-1,0-1.52,1.25-1.52,2.15C49.14,35.59,53.87,48,55.35,52ZM61.84,70a17.1,17.1,0,0,1,2.77-2.62,34.74,34.74,0,0,1-4.06-.82C61,67.73,61.45,68.87,61.84,70Zm5.93-17.46,4.57.82c1.18-3.2,6.45-17.62,6.45-20.24,0-1-.31-2.18-1.49-2.18-2.18,0-4.53,7.11-5.07,8.79Z"/></g></svg>