<svg xmlns="http://www.w3.org/2000/svg" viewBox="0 0 120 120"><defs><style>.cls-1{fill:#41b6e6;}</style></defs><title>icon-github</title><g id="circle"><path class="cls-1" d="M60,4A56,56,0,1,1,4,60,56.06,56.06,0,0,1,60,4m0-4a60,60,0,1,0,60,60A60,60,0,0,0,60,0Z"/></g><g id="Layer_1" data-name="Layer 1"><path class="cls-1" d="M95,60.88A35.87,35.87,0,0,1,71.07,94.94c-1.77.33-2.41-.79-2.41-1.73,0-1.16,0-5,0-9.86,0-3.36-1.09-5.51-2.37-6.63,7.8-.89,16-3.92,16-17.71a14.1,14.1,0,0,0-3.6-9.62,13.32,13.32,0,0,0-.36-9.53c-2.92-.94-9.62,3.69-9.62,3.69a32,32,0,0,0-17.5,0s-6.7-4.63-9.62-3.69a13.32,13.32,0,0,0-.36,9.53A14.1,14.1,0,0,0,37.67,59c0,13.74,8.16,16.82,15.95,17.71a8,8,0,0,0-2.23,4.81c-2,.94-7.11,2.53-10.17-3a7.3,7.3,0,0,0-5.37-3.69c-3.42,0-.23,2.2-.23,2.2,2.28,1.07,3.87,5.23,3.87,5.23,2,6.4,11.81,4.25,11.81,4.25,0,3,0,5.8,0,6.68s-.64,2.06-2.41,1.73A35.87,35.87,0,0,1,25,60.88C25,41.07,40.68,25,60,25S95,41.07,95,60.88ZM37.94,76c-.27-.09-.5,0-.59.1s0,.42.32.56a.41.41,0,0,0,.59-.1C38.35,76.35,38.22,76.11,37.94,76Zm1.64,1.4c-.22-.23-.54-.32-.73-.14s-.13.47.1.75.54.33.72.14S39.81,77.65,39.58,77.37Zm1.46,2c-.18-.33-.55-.47-.77-.28s-.23.51,0,.84.59.46.77.32A.64.64,0,0,0,41,79.34Zm1.73,2c-.32-.33-.73-.37-.91-.14s-.13.61.18.89.73.37.92.14S43.05,81.58,42.77,81.3ZM45,82.61a.72.72,0,0,0-.87.32c-.09.28.19.61.6.71a.64.64,0,0,0,.86-.29C45.64,83.07,45.37,82.75,45,82.61Zm2.69.46c-.41,0-.73.24-.73.52s.32.56.78.51.72-.23.72-.51S48.06,83,47.65,83.07Zm2.6-.37c-.41.09-.69.37-.64.7a.64.64,0,0,0,.82.38c.41-.1.68-.38.64-.66S50.66,82.65,50.25,82.7Z"/></g></svg>