<svg xmlns="http://www.w3.org/2000/svg" viewBox="0 0 120 120"><defs><style>.cls-1{fill:#41b6e6;}</style></defs><title>icon-steemit</title><g id="circle"><path class="cls-1" d="M60,4A56,56,0,1,1,4,60,56.06,56.06,0,0,1,60,4m0-4a60,60,0,1,0,60,60A60,60,0,0,0,60,0Z"/></g><g id="Layer_1" data-name="Layer 1"><path class="cls-1" d="M36.28,33.22c-.17,1.57-.32,3.07-.48,4.57a16.16,16.16,0,0,0,1.11,7.85c1,2.39,2.15,4.68,3.22,7,2.14,4.68,4.34,9.34,6.37,14.08a34.8,34.8,0,0,1,1.66,5.61A6,6,0,0,1,47.23,77a38.17,38.17,0,0,1-8.42,9.63,6.5,6.5,0,0,1-1,.67c-.36.2-.58.08-.57-.34a2.51,2.51,0,0,1,.1-.6c.57-2.34,1.2-4.66,1.69-7a10.33,10.33,0,0,0-.93-6.49c-2.26-4.9-4.58-9.78-6.86-14.67a69.77,69.77,0,0,1-4-10.37,9.14,9.14,0,0,1,1.28-8.1A28.84,28.84,0,0,1,34.74,33a4.51,4.51,0,0,1,.8-.51c.56-.29.75-.17.75.45C36.29,33.06,36.28,33.17,36.28,33.22Z"/><path class="cls-1" d="M81.21,33.22c-.16,1.57-.31,3.07-.47,4.57a16.15,16.15,0,0,0,1.1,7.85c1,2.39,2.16,4.68,3.23,7,2.14,4.68,4.34,9.34,6.37,14.08a34.8,34.8,0,0,1,1.66,5.61A6,6,0,0,1,92.17,77a38.56,38.56,0,0,1-8.42,9.63,7,7,0,0,1-1,.67c-.36.2-.58.08-.58-.34a4.17,4.17,0,0,1,.1-.6c.57-2.34,1.21-4.66,1.69-7A10.26,10.26,0,0,0,83,72.82c-2.26-4.9-4.57-9.78-6.85-14.67a68.69,68.69,0,0,1-4-10.37,9.13,9.13,0,0,1,1.27-8.1A29.27,29.27,0,0,1,79.67,33a4.59,4.59,0,0,1,.81-.51c.56-.29.75-.17.75.45A1.65,1.65,0,0,1,81.21,33.22Z"/><path class="cls-1" d="M58.14,25.9c-.2,1.87-.41,5-.63,6.87-.35,3,.52,5.83,1.31,8.69a55.16,55.16,0,0,0,3.58,8.33c3.12,6.75,6.26,13.5,9.28,20.29a17.3,17.3,0,0,1,1.49,6,11.81,11.81,0,0,1-1.57,6.24A42,42,0,0,1,61,94.17a6.57,6.57,0,0,1-1.15.73c-.45.23-.75.07-.74-.46a4,4,0,0,1,.13-.77c.72-2.94,1.71-4.49,2.34-7.45a15.93,15.93,0,0,0-1.18-9.16C58.32,72.5,56.16,68,54,63.44a149.57,149.57,0,0,1-6.58-15.22,25.9,25.9,0,0,1-1.58-6.48,12.07,12.07,0,0,1,.9-5.05A33.77,33.77,0,0,1,56.69,25.3a.76.76,0,0,1,.23-.13,5.44,5.44,0,0,1,.54-.15.49.49,0,0,1,.62.4A1.72,1.72,0,0,1,58.14,25.9Z"/></g></svg>